<svg xmlns="http://www.w3.org/2000/svg" width="111.836" height="32.888" viewBox="0 0 111.836 32.888">
  <g id="Group_4797" data-name="Group 4797" transform="translate(-345.961 -116)">
    <g id="Button" transform="translate(345.961 116)">
      <rect id="Rectangle_270" data-name="Rectangle 270" width="111.836" height="32.888" rx="4" fill="#178f49"/>
    </g>
    <g id="APP_STORE" data-name="APP STORE" transform="translate(389.245 135.721)" style="isolation: isolate">
      <g id="Group_725" data-name="Group 725" style="isolation: isolate">
        <path id="Path_287" data-name="Path 287" d="M768,409.732l-.5,1.641h-1.091l1.855-5.788h1.348l1.881,5.788h-1.134l-.524-1.641Zm1.657-.8-.455-1.425c-.112-.352-.206-.748-.292-1.082H768.9c-.086.334-.172.738-.275,1.082l-.446,1.425Z" transform="translate(-766.414 -405.489)" fill="#fff"/>
        <path id="Path_288" data-name="Path 288" d="M779.092,405.61a9.158,9.158,0,0,1,1.614-.12,2.619,2.619,0,0,1,1.709.472,1.637,1.637,0,0,1,.567,1.28,1.755,1.755,0,0,1-.5,1.314,2.555,2.555,0,0,1-1.829.618,2.946,2.946,0,0,1-.516-.035v2.182h-1.047Zm1.047,2.7a2.115,2.115,0,0,0,.516.043c.79,0,1.271-.386,1.271-1.064,0-.645-.447-.988-1.177-.988a2.929,2.929,0,0,0-.61.052Z" transform="translate(-773.286 -405.438)" fill="#fff"/>
        <path id="Path_289" data-name="Path 289" d="M789.388,405.61a9.154,9.154,0,0,1,1.614-.12,2.62,2.62,0,0,1,1.709.472,1.637,1.637,0,0,1,.567,1.28,1.755,1.755,0,0,1-.5,1.314,2.555,2.555,0,0,1-1.829.618,2.947,2.947,0,0,1-.516-.035v2.182h-1.047Zm1.047,2.7a2.116,2.116,0,0,0,.516.043c.79,0,1.271-.386,1.271-1.064,0-.645-.447-.988-1.177-.988a2.93,2.93,0,0,0-.61.052Z" transform="translate(-778.866 -405.438)" fill="#fff"/>
        <path id="Path_290" data-name="Path 290" d="M803.046,410.11a2.932,2.932,0,0,0,1.4.37c.678,0,1.057-.319,1.057-.791,0-.438-.292-.7-1.031-.962-.953-.344-1.563-.851-1.563-1.683,0-.945.79-1.667,2.044-1.667a3.055,3.055,0,0,1,1.391.293l-.258.85a2.448,2.448,0,0,0-1.151-.275c-.67,0-.961.361-.961.7,0,.447.334.652,1.108.953,1,.378,1.494.885,1.494,1.718,0,.927-.7,1.734-2.2,1.734a3.445,3.445,0,0,1-1.564-.36Z" transform="translate(-786.143 -405.377)" fill="#fff"/>
        <path id="Path_291" data-name="Path 291" d="M813.39,406.469h-1.649v-.885h4.372v.885h-1.667v4.9H813.39Z" transform="translate(-790.982 -405.489)" fill="#fff"/>
        <path id="Path_292" data-name="Path 292" d="M826.837,408.305a2.737,2.737,0,0,1-2.774,3.05,2.675,2.675,0,0,1-2.663-2.946,2.771,2.771,0,0,1,2.748-3.032A2.673,2.673,0,0,1,826.837,408.305Zm-4.32.086c0,1.177.593,2.113,1.606,2.113s1.6-.944,1.6-2.156c0-1.09-.541-2.121-1.6-2.121S822.517,407.2,822.517,408.391Z" transform="translate(-796.217 -405.377)" fill="#fff"/>
        <path id="Path_293" data-name="Path 293" d="M835.071,405.61a10.044,10.044,0,0,1,1.6-.12,2.68,2.68,0,0,1,1.786.463,1.465,1.465,0,0,1,.5,1.159,1.545,1.545,0,0,1-1.048,1.452v.026a1.473,1.473,0,0,1,.807,1.116,11.557,11.557,0,0,0,.456,1.615h-1.091a8.148,8.148,0,0,1-.386-1.365c-.163-.756-.438-1-1.039-1.014h-.533v2.379h-1.048Zm1.048,2.559h.627c.713,0,1.159-.377,1.159-.953,0-.636-.447-.928-1.134-.928a3.083,3.083,0,0,0-.653.051Z" transform="translate(-803.627 -405.438)" fill="#fff"/>
        <path id="Path_294" data-name="Path 294" d="M848.792,408.8h-2.181v1.7h2.439v.868h-3.5v-5.788h3.366v.868h-2.31v1.493h2.181Z" transform="translate(-809.309 -405.489)" fill="#fff"/>
      </g>
    </g>
    <text id="حمل_التطبيق_الأن" data-name="حمل التطبيق الأن" transform="translate(389.051 129.98)" fill="#fff" font-size="7.5" font-family="Cairo-Regular, Cairo"><tspan x="0" y="0">حمل التطبيق الأن</tspan></text>
    <g id="Apple_Logo" data-name="Apple Logo" transform="translate(357.43 121.833)">
      <path id="Path_310" data-name="Path 310" d="M699.335,403.248c-1.456-.012-2.569-1.439-3.4-2.708-2.331-3.547-2.574-7.709-1.136-9.923a5.157,5.157,0,0,1,4.147-2.493c1.543,0,2.513.847,3.788.847,1.238,0,1.991-.847,3.774-.847a5.035,5.035,0,0,1,3.794,2,4.34,4.34,0,0,0,.577,7.862,14.175,14.175,0,0,1-1.283,2.4c-.833,1.268-2.008,2.848-3.463,2.862a3.253,3.253,0,0,1-1.518-.416,4.022,4.022,0,0,0-1.864-.416c-1.743.01-2.116.835-3.389.835Zm2.774-15a4.015,4.015,0,0,1,.987-3.127,4.678,4.678,0,0,1,3.019-1.625,4.328,4.328,0,0,1-.96,3.206,3.977,3.977,0,0,1-2.959,1.547Z" transform="translate(-693.904 -383.5)" fill="#fff"/>
    </g>
  </g>
</svg>
