<svg xmlns="http://www.w3.org/2000/svg" width="22.723" height="17.691" viewBox="0 0 22.723 17.691">
  <g id="Icon" transform="translate(0.05)">
    <path id="Path_237" data-name="Path 237" d="M21.481,2.822H1.195A1.449,1.449,0,0,1,0,1.411,1.449,1.449,0,0,1,1.195,0H21.481a1.449,1.449,0,0,1,1.195,1.411,1.449,1.449,0,0,1-1.195,1.411Z" transform="translate(-0.026)" fill="#fff"/>
    <path id="Path_238" data-name="Path 238" d="M21.458,16.822H1.165A1.324,1.324,0,0,1-.05,15.411,1.324,1.324,0,0,1,1.165,14H21.458a1.324,1.324,0,0,1,1.215,1.411A1.324,1.324,0,0,1,21.458,16.822Z" transform="translate(0 -6.565)" fill="#fff"/>
    <path id="Path_239" data-name="Path 239" d="M21.481,30.822H1.195a1.431,1.431,0,0,1,0-2.822H21.481a1.431,1.431,0,0,1,0,2.822Z" transform="translate(-0.026 -13.131)" fill="#fff"/>
  </g>
</svg>
