<svg xmlns="http://www.w3.org/2000/svg" width="111.836" height="32.888" viewBox="0 0 111.836 32.888">
  <g id="Group_4798" data-name="Group 4798" transform="translate(-225.051 -116)">
    <g id="Group_722" data-name="Group 722" transform="translate(225.051 116)">
      <g id="Button-2">
        <rect id="Rectangle_271" data-name="Rectangle 271" width="111.836" height="32.888" rx="4" fill="#178f49"/>
      </g>
      <g id="Google_Play" data-name="Google Play" transform="translate(43.41 18.553)" opacity="0.941">
        <g id="GOOGLE_PLAY-2" data-name="GOOGLE PLAY-2" transform="translate(0.003 0.001)" style="isolation: isolate">
          <g id="Group_727" data-name="Group 727" style="isolation: isolate">
            <path id="Path_312" data-name="Path 312" d="M463.634,410.669a5.733,5.733,0,0,1-1.864.326,3.118,3.118,0,0,1-2.268-.773,2.866,2.866,0,0,1-.807-2.13,2.941,2.941,0,0,1,3.221-3.006,3.834,3.834,0,0,1,1.537.275l-.232.85a3.119,3.119,0,0,0-1.314-.249,1.938,1.938,0,0,0-2.1,2.079,1.913,1.913,0,0,0,2.01,2.1,2.029,2.029,0,0,0,.8-.12v-1.443H461.59v-.833h2.044Z" transform="translate(-458.696 -405.053)" fill="#fff"/>
            <path id="Path_313" data-name="Path 313" d="M476.435,407.94a2.736,2.736,0,0,1-2.774,3.049A2.674,2.674,0,0,1,471,408.044a2.771,2.771,0,0,1,2.748-3.032A2.673,2.673,0,0,1,476.435,407.94Zm-4.32.086c0,1.177.593,2.113,1.606,2.113s1.6-.944,1.6-2.156c0-1.091-.541-2.121-1.6-2.121S472.115,406.832,472.115,408.026Z" transform="translate(-465.364 -405.012)" fill="#fff"/>
            <path id="Path_314" data-name="Path 314" d="M489.45,407.94a2.736,2.736,0,0,1-2.774,3.049,2.674,2.674,0,0,1-2.662-2.945,2.771,2.771,0,0,1,2.748-3.032A2.673,2.673,0,0,1,489.45,407.94Zm-4.32.086c0,1.177.593,2.113,1.606,2.113s1.6-.944,1.6-2.156c0-1.091-.541-2.121-1.6-2.121S485.13,406.832,485.13,408.026Z" transform="translate(-472.419 -405.012)" fill="#fff"/>
            <path id="Path_315" data-name="Path 315" d="M501.967,410.669A5.739,5.739,0,0,1,500.1,411a3.117,3.117,0,0,1-2.267-.773,2.866,2.866,0,0,1-.807-2.13,2.941,2.941,0,0,1,3.221-3.006,3.837,3.837,0,0,1,1.537.275l-.232.85a3.119,3.119,0,0,0-1.314-.249,1.938,1.938,0,0,0-2.1,2.079,1.913,1.913,0,0,0,2.01,2.1,2.026,2.026,0,0,0,.8-.12v-1.443h-1.022v-.833h2.044Z" transform="translate(-479.473 -405.053)" fill="#fff"/>
            <path id="Path_316" data-name="Path 316" d="M509.988,405.218h1.056v4.9h2.379v.884h-3.435Z" transform="translate(-486.497 -405.124)" fill="#fff"/>
            <path id="Path_317" data-name="Path 317" d="M522.284,408.439H520.1v1.7h2.439v.867h-3.5v-5.789h3.367v.867H520.1v1.494h2.181Z" transform="translate(-491.406 -405.124)" fill="#fff"/>
            <path id="Path_318" data-name="Path 318" d="M532.211,405.244a9.11,9.11,0,0,1,1.614-.12,2.62,2.62,0,0,1,1.709.472,1.637,1.637,0,0,1,.567,1.28,1.753,1.753,0,0,1-.5,1.314,2.554,2.554,0,0,1-1.829.618,2.985,2.985,0,0,1-.515-.034v2.181h-1.048Zm1.048,2.7a2.1,2.1,0,0,0,.515.043c.79,0,1.271-.387,1.271-1.065,0-.644-.447-.988-1.177-.988a2.926,2.926,0,0,0-.61.051Z" transform="translate(-498.542 -405.073)" fill="#fff"/>
            <path id="Path_319" data-name="Path 319" d="M542.506,405.218h1.057v4.9h2.379v.884h-3.435Z" transform="translate(-504.122 -405.124)" fill="#fff"/>
            <path id="Path_320" data-name="Path 320" d="M552.291,409.366l-.5,1.641H550.7l1.855-5.789h1.349l1.881,5.789h-1.134l-.523-1.641Zm1.658-.8-.455-1.425c-.112-.353-.206-.747-.292-1.082h-.017c-.086.335-.172.738-.275,1.082l-.447,1.425Z" transform="translate(-508.564 -405.124)" fill="#fff"/>
            <path id="Path_321" data-name="Path 321" d="M562.433,411.007v-2.413l-1.829-3.375h1.2l.7,1.486c.2.429.344.756.5,1.151h.017c.146-.369.309-.73.506-1.151l.7-1.486h1.193l-1.924,3.349v2.439Z" transform="translate(-513.931 -405.124)" fill="#fff"/>
          </g>
        </g>
        <g id="Color_Overlay" data-name="Color Overlay">
          <path id="Path_322" data-name="Path 322" d="M463.631,407.7h-2.044v.834h1.022v1.443a2.026,2.026,0,0,1-.8.12,1.913,1.913,0,0,1-2.01-2.1,1.939,1.939,0,0,1,2.1-2.079,3.119,3.119,0,0,1,1.314.249l.232-.851a3.839,3.839,0,0,0-1.537-.275,2.942,2.942,0,0,0-3.221,3.006,2.867,2.867,0,0,0,.807,2.13,3.12,3.12,0,0,0,2.268.773,5.744,5.744,0,0,0,1.864-.327Zm3.444-2.688a2.771,2.771,0,0,0-2.748,3.032,2.675,2.675,0,0,0,2.663,2.946,2.737,2.737,0,0,0,2.775-3.049,2.673,2.673,0,0,0-2.687-2.929Zm-.026.85c1.057,0,1.6,1.031,1.6,2.121,0,1.211-.576,2.156-1.6,2.156s-1.606-.936-1.606-2.113C465.444,406.831,466,405.86,467.05,405.86Zm5.987-.85a2.771,2.771,0,0,0-2.748,3.032,2.675,2.675,0,0,0,2.663,2.946,2.737,2.737,0,0,0,2.774-3.049,2.674,2.674,0,0,0-2.689-2.929Zm-.026.85c1.057,0,1.6,1.031,1.6,2.121,0,1.211-.576,2.156-1.6,2.156s-1.606-.936-1.606-2.113C471.4,406.831,471.963,405.86,473.011,405.86Zm8.177,1.838h-2.044v.834h1.022v1.443a2.026,2.026,0,0,1-.8.12,1.913,1.913,0,0,1-2.01-2.1,1.938,1.938,0,0,1,2.1-2.079,3.119,3.119,0,0,1,1.314.249l.232-.851a3.839,3.839,0,0,0-1.537-.275,2.942,2.942,0,0,0-3.221,3.006,2.867,2.867,0,0,0,.807,2.13,3.119,3.119,0,0,0,2.267.773,5.743,5.743,0,0,0,1.864-.327Zm1,3.2h3.435v-.885H483.24v-4.9h-1.057Zm7.387-3.427h-2.182v-1.494H489.7V405.1h-3.367v5.789h3.5v-.867h-2.439v-1.7h2.182Zm2.794,3.427h1.047v-2.182a2.942,2.942,0,0,0,.515.034,2.554,2.554,0,0,0,1.83-.618,1.754,1.754,0,0,0,.5-1.314,1.634,1.634,0,0,0-.567-1.28,2.619,2.619,0,0,0-1.709-.472,9.126,9.126,0,0,0-1.615.12Zm1.047-4.972a2.934,2.934,0,0,1,.61-.052c.73,0,1.177.344,1.177.988,0,.679-.481,1.065-1.271,1.065a2.137,2.137,0,0,1-.515-.043Zm3.668,4.973h3.435v-.885h-2.379V405.1h-1.059Zm7.181-1.641.524,1.641h1.131l-1.881-5.789h-1.348l-1.855,5.789h1.091l.5-1.641Zm-1.666-.8.447-1.426c.1-.343.189-.747.275-1.082h.017c.086.335.18.73.292,1.082l.455,1.426Zm5.657,2.438v-2.439l1.924-3.35h-1.191l-.7,1.486c-.2.421-.361.782-.507,1.151h-.017c-.155-.4-.3-.721-.5-1.151l-.7-1.486h-1.2l1.83,3.375v2.414Z" transform="translate(-458.689 -405.01)" fill="#fff"/>
        </g>
      </g>
    </g>
    <text id="حمل_التطبيق_الأن" data-name="حمل التطبيق الأن" transform="translate(268.051 128.98)" fill="#fff" font-size="7.3" font-family="Cairo-Regular, Cairo"><tspan x="0" y="0">حمل التطبيق الأن</tspan></text>
    <g id="Google_Play_Logo-2" data-name="Google Play Logo-2" transform="translate(236.754 124)">
      <path id="Path_339" data-name="Path 339" d="M398.472,391.026l-3.187,1.778-2.555-2.542,2.555-2.542,3.187,1.778s.526.328.517.764C399,390.7,398.472,391.026,398.472,391.026Zm-6.156-1.178-8.389-8.348a2.049,2.049,0,0,1,.7.262c1.032.581,6.39,3.572,10.131,5.66Zm-9.049,9a1.345,1.345,0,0,1-.359-.824V382.491a1.345,1.345,0,0,1,.359-.824l8.634,8.591Zm9.049-8.177,2.438,2.427c-3.74,2.088-9.1,5.079-10.131,5.66a2.049,2.049,0,0,1-.7.262Z" transform="translate(-382.908 -381.5)" fill="#fff"/>
    </g>
  </g>
</svg>
