<svg xmlns="http://www.w3.org/2000/svg" viewBox="0 0 433.26 286.1">
    <defs>
        <style>.cls-1{fill:#fff;}</style>
    </defs>
    <g id="Layer_2" data-name="Layer 2">
        <g id="Layer_1-2" data-name="Layer 1">
            <path class="cls-1"
                  d="M116.6,154.82a6.5,6.5,0,0,0,1.75-1.6,85.61,85.61,0,0,1,6-6.16c8.07-7.41,17.41-12.74,27.51-16.84,3.89-1.57,5.54-4.41,5.22-8.54a60.22,60.22,0,0,1,5.27-30c4.17-9.24,10.73-16.61,18.28-23.18A58.69,58.69,0,0,1,197.86,58c9.16-3.6,18.77-5,28.49-5.64,12.29-.88,24.6-.71,36.91-.43,4.06.1,6.81-2.45,6.86-6.51,0-1.34,0-2.68,0-4a36,36,0,0,1,7-21.27A72.87,72.87,0,0,1,292.58,4.81C295,3,295,2.09,293,0h-1.78c-.27.56-.86.64-1.32.87-3.73,1.87-7.46,3.72-11.09,5.78-10.85,6.14-18.08,15-20.47,27.41-.52,2.73-2.08,3.84-4.85,3.81l-11-.12c-12.23-.14-24.41.44-36.38,3.16a85.19,85.19,0,0,0-42.86,24,65.7,65.7,0,0,0-17.71,32.78A80,80,0,0,0,144,117.26a5.07,5.07,0,0,1-1.9,4.31,22.82,22.82,0,0,1-2.27,1.67,67.28,67.28,0,0,0-12.13,9.8,205.67,205.67,0,0,0-14.13,17.07,4.72,4.72,0,0,0-.84,1.73,3.07,3.07,0,0,0,.69,3.17C114.34,155.82,115.55,155.36,116.6,154.82Z"/>
            <path class="cls-1"
                  d="M431.74,258.09A76.67,76.67,0,0,1,419.44,246c-5.5-7-8.77-15.16-11.43-23.56-4.53-14.32-6.87-29.11-9-43.93-1.71-11.67-3.52-23.32-6.1-34.84C389,126.28,381,111.2,368,98.82S340.61,75.5,326,64.93c-6.67-4.83-13.79-9-20.17-14.25a29.79,29.79,0,0,1-8.13-9.38c-2.37-4.63-2.32-9.43-1-14.33.23-.85,1-1.87,0-2.6s-1.84.31-2.59.83a28.23,28.23,0,0,0-3.35,2.72c-4.67,4.42-7.89,9.54-7.64,16.28a23,23,0,0,0,4.63,12.52c4.78,6.81,11.08,12,18,16.53C318.19,81.46,331.08,89,343.18,97.8c8.34,6,16.12,12.71,22.64,20.76,7.1,8.77,12.17,18.64,16.33,29.06a92,92,0,0,1,6.79,27.46c.8,10.88,1.12,21.79,2.16,32.65.82,8.55,2.06,17,4.82,25.21,3,9,7.58,16.95,15.41,22.62,4.28,3.09,8.76,5.9,14.61,5.62a17.93,17.93,0,0,0,5.24-.6c.73-.19,1.89,0,2.06-.82S432.34,258.57,431.74,258.09Z"/>
            <path class="cls-1"
                  d="M363.75,173.28c-6.45-8.52-14.67-15-23.64-20.62-12.72-8-26.42-13.82-40.51-18.85-15.24-5.44-30.88-9.43-46.61-13.18-8.41-2-14.64,4.16-13.54,12,.25,1.81.38,3.65.73,5.45,1.22,6.23,6,9.6,12.3,8.48a136.45,136.45,0,0,1,21.92-2.09,133,133,0,0,1,15,1.09,114.46,114.46,0,0,1,44.74,15.64c8.2,5,15.51,11.06,20.81,19.23a28.5,28.5,0,0,1,3.73,24.19c-1.42,5-4.52,9.13-7.88,13-6.17,7.13-12.46,14.15-18,21.82-5.07,7.07-9.47,14.46-10.63,23.3a28.25,28.25,0,0,0,6.35,22.37c1.18,1.45,1.79,1.32,2.35-.49a96.63,96.63,0,0,1,3.81-10.32c4-9,9.38-17.11,15.19-25,5.24-7.1,10.87-13.92,15.55-21.43,5.94-9.54,9.27-19.71,7.67-31.09A49.5,49.5,0,0,0,363.75,173.28Z"/>
            <path class="cls-1"
                  d="M239.4,175.49c1.7.8,3,.52,3.9-.83s.64-2.83-.79-4.07-2.91-2.4-4.25-3.72c-10.61-10.47-14.61-23.29-13.38-37.93.37-4.47-2.62-7.68-7.73-7.46a97.59,97.59,0,0,0-18,3.83c-11.69,3.54-22.58,8.87-33.29,14.63-1.13.61-1.84,1.42-1.26,2.75s1.56,1.45,2.84,1.12c3.41-.87,6.83-1.72,10.26-2.46,7.71-1.67,15.53-2.66,23.34-3.7,3.92-.53,7,.65,8.28,5.21a37.65,37.65,0,0,0,1.95,5C217.09,160.66,226.79,169.56,239.4,175.49Z"/>
            <path class="cls-1"
                  d="M195.2,100.29c0-4.13-4-8.22-8.06-8.25S179,96,179,100.13s3.88,8.41,8,8.5S195.21,104.49,195.2,100.29Z"/>
            <path class="cls-1"
                  d="M28.89,224.53A8.77,8.77,0,0,1,26,231.47a10.67,10.67,0,0,1-7.32,2.42q-10.08,0-11.12-10c-.08-.84-.11-3.08-.11-6.73V214.6L0,217v3.9A29.55,29.55,0,0,0,2.42,233a13.37,13.37,0,0,0,4.85,5.66q4.38,2.88,11.48,2.88,9.91,0,14.7-6.29a14.58,14.58,0,0,0,3-9.19V204.28l-7.52,2.52Z"/>
            <path class="cls-1"
                  d="M17.66,214a3.67,3.67,0,0,0,2.76-1.32,4.22,4.22,0,0,0,1.21-3,4.43,4.43,0,0,0-1.21-3.07,3.74,3.74,0,0,0-2.76-1.26,3.62,3.62,0,0,0-2.76,1.26,4.5,4.5,0,0,0,0,6.14A3.71,3.71,0,0,0,17.66,214Z"/>
            <polygon class="cls-1" points="43.2 229.38 50.69 229.38 50.69 188.13 43.2 190.77 43.2 229.38"/>
            <path class="cls-1"
                  d="M99,243.72a3.67,3.67,0,0,0,2.76-1.32,4.17,4.17,0,0,0,1.21-3,4.44,4.44,0,0,0-1.21-3.1A3.74,3.74,0,0,0,99,235a3.62,3.62,0,0,0-2.76,1.26,4.55,4.55,0,0,0-1.21,3.1,4.43,4.43,0,0,0,1.21,3.07A3.74,3.74,0,0,0,99,243.72Z"/>
            <path class="cls-1"
                  d="M91.38,242.4a4.17,4.17,0,0,0,1.21-3,4.44,4.44,0,0,0-1.21-3.1A3.84,3.84,0,0,0,88.59,235a3.62,3.62,0,0,0-2.76,1.26,4.55,4.55,0,0,0-1.21,3.1,4.43,4.43,0,0,0,1.21,3.07,3.74,3.74,0,0,0,2.76,1.26A3.7,3.7,0,0,0,91.38,242.4Z"/>
            <path class="cls-1"
                  d="M149.39,229.38H153a11.61,11.61,0,0,0,8.42-3q3.21-3.17,3.21-8.76V188.13l-7.43,2.64v26.48c0,3.17-1.49,4.76-4.45,4.76H141.93v-4a25.92,25.92,0,0,0-1-7.86,15.8,15.8,0,0,0-3.13-5.53,13.3,13.3,0,0,0-10.39-4.45,16.34,16.34,0,0,0-8.64,2.45,17.21,17.21,0,0,0-4.68,4.27l4.62,5q3.81-4.31,8.59-4.3,4.23,0,5.94,4.3a18.31,18.31,0,0,1,1.1,6.73V222h-26.1a4.46,4.46,0,0,1-3.24-1,5,5,0,0,1-1.21-3.59V201.58l-7.44,2.64v13q0,4.75-4.28,4.76h-9.6v-5.9q0-6.74-2.14-10.81Q77.24,199.5,70,199.49A11.65,11.65,0,0,0,59.45,206a18.25,18.25,0,0,0-2,8.7q0,6.78,3.8,10.93A11.37,11.37,0,0,0,70,229.38h5a7,7,0,0,1-1.88,3.19A7,7,0,0,1,68,234.42a17.58,17.58,0,0,1-10.11-3.23l3.35,8.26a16.47,16.47,0,0,0,2.87,1.2,20.1,20.1,0,0,0,5.55.86,12.63,12.63,0,0,0,6.87-1.93,11.92,11.92,0,0,0,4.37-5,17.15,17.15,0,0,0,1.46-5.22H92.48a10.93,10.93,0,0,0,7.71-3.07,10.69,10.69,0,0,0,7.55,3.07h41.65Zm-74.26-11V222H70a4.37,4.37,0,0,1-3.21-1.32q-1.92-2-1.92-6a10.75,10.75,0,0,1,1.49-5.87A4.26,4.26,0,0,1,70,206.68a4,4,0,0,1,3.24,1.69,9,9,0,0,1,1.85,5.1q.06.74.06,2.82Z"/>
            <polygon class="cls-1" points="171.41 229.38 178.9 229.38 178.9 188.13 171.41 190.77 171.41 229.38"/>
            <path class="cls-1"
                  d="M198.64,187.11a4.51,4.51,0,0,0,0,6.15,3.64,3.64,0,0,0,5.55-.07,4.17,4.17,0,0,0,1.21-3,4.4,4.4,0,0,0-1.21-3.07,3.84,3.84,0,0,0-2.79-1.26A3.62,3.62,0,0,0,198.64,187.11Z"/>
            <path class="cls-1"
                  d="M209,187.11a4.51,4.51,0,0,0,0,6.15,3.73,3.73,0,0,0,2.76,1.25,3.67,3.67,0,0,0,2.76-1.32,4.17,4.17,0,0,0,1.21-3,4.4,4.4,0,0,0-1.21-3.07,3.74,3.74,0,0,0-2.76-1.26A3.62,3.62,0,0,0,209,187.11Z"/>
            <path class="cls-1"
                  d="M251,204.59a13.31,13.31,0,0,0-10.39-4.45,16.4,16.4,0,0,0-8.65,2.45,17.33,17.33,0,0,0-4.67,4.27l4.62,5q3.79-4.31,8.59-4.3,4.22,0,5.94,4.3a18.31,18.31,0,0,1,1.1,6.73V222H221.42a4.32,4.32,0,0,1-3.24-1.11,4.78,4.78,0,0,1-1.21-3.53V200.14H205.74q-5.52,0-8.7,3.19-3.84,3.78-3.83,11.27,0,7,3.18,10.88a10.4,10.4,0,0,0,8.64,3.9,11.27,11.27,0,0,0,5.38-1.26,14.28,14.28,0,0,0,2.93-2.27q3.69,3.53,7.55,3.53h34.18V218a25.14,25.14,0,0,0-.62-6.48A15.47,15.47,0,0,0,251,204.59Zm-41.51,9.95a14,14,0,0,1-.17,2.06,13.75,13.75,0,0,1-.59,2.89,3.62,3.62,0,0,1-3.63,2.52,3.66,3.66,0,0,1-3.69-2.58,13.85,13.85,0,0,1-.68-4.83,11.49,11.49,0,0,1,.91-5.16,4.42,4.42,0,0,1,4.28-2.27h3.57Z"/>
            <polygon class="cls-1" points="269.38 188.13 261.89 190.77 261.89 229.38 269.38 229.38 269.38 188.13"/>
            <path class="cls-1"
                  d="M288.72,199.49A11.65,11.65,0,0,0,278.14,206a18,18,0,0,0-2,8.7,19,19,0,0,0,1,6.35,14.91,14.91,0,0,0,2.93,5,11.61,11.61,0,0,0,9.07,3.78,10.69,10.69,0,0,0,4.67-1.14,15.07,15.07,0,0,1-.53,1.78,5.78,5.78,0,0,1-1.5,2.12,7.07,7.07,0,0,1-5.18,1.85,17.49,17.49,0,0,1-10.05-3.23l3.35,8.26a16.47,16.47,0,0,0,2.87,1.2,20.1,20.1,0,0,0,5.55.86,13.12,13.12,0,0,0,4.51-.73,12.27,12.27,0,0,0,5.12-3.6,12.86,12.86,0,0,0,2.65-5.53,34,34,0,0,0,.59-7.12v-8.05Q301.17,199.49,288.72,199.49Zm3.64,20.89a4.33,4.33,0,0,1-3.75,2.21,4,4,0,0,1-3-1.44q-2-2.22-2-6.42a10.66,10.66,0,0,1,1.5-5.87,4.09,4.09,0,0,1,7.09-.25,10.19,10.19,0,0,1,1.69,6.12A10.45,10.45,0,0,1,292.36,220.38Z"/>
            <path class="cls-1"
                  d="M299.93,256.85a6,6,0,0,0-3.63-1h-3.7l1.79-1.79,2.83-2.33h-2.84c-.64.78-1.42,1.65-2.33,2.63-.38.41-.88.93-1.47,1.51l-1.72,1.69h7c2.24,0,3.36.75,3.36,2.29v2.9H269a1.25,1.25,0,0,1-1.12-.51,4.05,4.05,0,0,1-.33-1.93v-8.58l-2.37.56.42,2.67v7.73a5.44,5.44,0,0,1-1.13,3.6,3.43,3.43,0,0,1-2.67,1.36,3.47,3.47,0,0,1-2.91-1.37,6.08,6.08,0,0,1-1-3.77V259h-1.95v3.68a7.06,7.06,0,0,0,1.31,4.56,5.3,5.3,0,0,0,4.3,1.77,6.17,6.17,0,0,0,4-1.21,5.56,5.56,0,0,0,2-3.3,3.15,3.15,0,0,0,1.07.13H301.2v-5A3.24,3.24,0,0,0,299.93,256.85Z"/>
            <path class="cls-1"
                  d="M194.52,262.82h-2.35c0-1.51.66-2.29,2-2.32a2.25,2.25,0,0,1,1.69.66l.53-1.51a4.57,4.57,0,0,0-2.78-.92c-2.52,0-3.77,1.36-3.77,4.09h-1.69v1.78h9.67l-1.57-2Z"/>
            <path class="cls-1"
                  d="M245.18,253a1.07,1.07,0,0,0,.38.88,1.27,1.27,0,0,0,.83.33,1.2,1.2,0,0,0,.88-.35,1.08,1.08,0,0,0,.35-.84,1.14,1.14,0,0,0-.37-.87,1.34,1.34,0,0,0-.86-.34,1.26,1.26,0,0,0-.85.36A1.08,1.08,0,0,0,245.18,253Z"/>
            <path class="cls-1"
                  d="M242.36,252.17a1.11,1.11,0,0,0-.35.83,1.09,1.09,0,0,0,.37.88,1.33,1.33,0,0,0,.86.33,1.19,1.19,0,0,0,.87-.35,1.2,1.2,0,0,0,0-1.71,1.22,1.22,0,0,0-1.71,0Z"/>
            <path class="cls-1"
                  d="M249,259.32v1.94c0,1.05-.47,1.57-1.41,1.57a2.29,2.29,0,0,1-1.7-.74V257l-2,.44v3.85c0,1.05-.48,1.57-1.41,1.57a2.59,2.59,0,0,1-1.77-.69V257l-1.94.44,0,3.83c0,1-.45,1.51-1.28,1.56h-21c-.95,0-1.43-.54-1.43-1.63l0-5H211.4a4.47,4.47,0,0,0-3.37,1.35,4.82,4.82,0,0,0-1.29,3.49,3.75,3.75,0,0,0,1,2.8,3.46,3.46,0,0,0,2.5,1,3.1,3.1,0,0,1-.63,1.69,2.88,2.88,0,0,1-1.83,1.19h-2.36a3.5,3.5,0,0,1-2.94-1.29,5.81,5.81,0,0,1-1-3.63v-3.55h-2v3.59a6.75,6.75,0,0,0,1.31,4.45,5.35,5.35,0,0,0,4.29,1.7h3.1a4.43,4.43,0,0,0,4-4.46v-1.31h-1.65c-1.25,0-1.87-.84-1.87-2.48,0-2.13.84-3.18,2.48-3.18h1.87v4.09a2.93,2.93,0,0,0,.79,2.18,2.9,2.9,0,0,0,2.15.78h21.77a3,3,0,0,0,2.12-.76l.38-.43a3.69,3.69,0,0,0,2.7,1.19,2.76,2.76,0,0,0,2.4-1.13,3.61,3.61,0,0,0,2.68,1.13,2.72,2.72,0,0,0,2.88-2.88V256.2l-2.34.54Z"/>
            <path class="cls-1"
                  d="M205,270.62a1.29,1.29,0,0,0-.84-.34,1.2,1.2,0,0,0-.87.36,1.07,1.07,0,0,0-.36.85,1,1,0,0,0,.38.85,1.34,1.34,0,0,0,.87.34,1.16,1.16,0,0,0,.86-.36,1.12,1.12,0,0,0,.33-.83h0A1.16,1.16,0,0,0,205,270.62Z"/>
            <path class="cls-1"
                  d="M208.21,270.62a1.29,1.29,0,0,0-.85-.34,1.13,1.13,0,0,0-.85.36,1.07,1.07,0,0,0-.36.85,1.11,1.11,0,0,0,.36.85,1.31,1.31,0,0,0,.87.34,1.19,1.19,0,0,0,1.19-1.19h0A1.17,1.17,0,0,0,208.21,270.62Z"/>
            <path class="cls-1"
                  d="M83.49,255.6a1.07,1.07,0,0,0-.33.81,1.1,1.1,0,0,0,.35.86,1.12,1.12,0,0,0,.83.33,1.16,1.16,0,0,0,1.17-1.17,1.13,1.13,0,0,0-.35-.85,1.08,1.08,0,0,0-.82-.33A1.13,1.13,0,0,0,83.49,255.6Z"/>
            <path class="cls-1"
                  d="M91.55,259.37v1.93c0,1-.48,1.54-1.44,1.54h-8c-1.54,0-2.32-.95-2.32-2.84a4.4,4.4,0,0,1,.91-2.38H79a5.4,5.4,0,0,0-.76,2.77,4.58,4.58,0,0,0,1,3.06,3.39,3.39,0,0,0,2.67,1.15H90.6a2.88,2.88,0,0,0,2.1-.76,2.77,2.77,0,0,0,.76-2.09v-5.39l-2.28.52Z"/>
            <path class="cls-1"
                  d="M87.46,255.25a1.17,1.17,0,0,0-.86.35,1.11,1.11,0,0,0-.33.81,1.13,1.13,0,0,0,.35.86,1.15,1.15,0,0,0,.84.33,1.11,1.11,0,0,0,.84-.35,1.13,1.13,0,0,0,.33-.82,1.17,1.17,0,0,0-.35-.85A1.09,1.09,0,0,0,87.46,255.25Z"/>
            <path class="cls-1"
                  d="M108.76,254.41a1.18,1.18,0,0,0,1.17-1.17h0a1.18,1.18,0,0,0-.34-.86,1.3,1.3,0,0,0-.83-.33,1.15,1.15,0,0,0-.84.35,1.1,1.1,0,0,0-.35.84,1.13,1.13,0,0,0,.35.84A1.34,1.34,0,0,0,108.76,254.41Z"/>
            <path class="cls-1"
                  d="M109.07,259.37v1.93c0,1-.49,1.54-1.44,1.54H99.38c-.93,0-1.4-.52-1.4-1.59v-9.2l-2.28.53.33,2.49v6.62a2.87,2.87,0,0,0,.78,2.14,2.84,2.84,0,0,0,2.1.77h9.2a2.85,2.85,0,0,0,2.11-.77,2.77,2.77,0,0,0,.78-2.06v-5.4l-2.28.51Z"/>
            <polygon class="cls-1"
                     points="113.08 254.62 113.08 264.6 115.01 264.6 115.01 254.6 115.2 252.01 112.77 252.21 113.08 254.62"/>
            <path class="cls-1"
                  d="M147.27,266.87a1.32,1.32,0,0,0-.86-.33,1.11,1.11,0,0,0-.81.35,1,1,0,0,0-.37.82,1,1,0,0,0,.37.86,1.3,1.3,0,0,0,.83.33,1.17,1.17,0,0,0,.86-.37,1.2,1.2,0,0,0,.35-.8h0A1.21,1.21,0,0,0,147.27,266.87Z"/>
            <path class="cls-1"
                  d="M150.37,266.87a1.35,1.35,0,0,0-.84-.33,1.15,1.15,0,0,0-.82.35,1.09,1.09,0,0,0-.35.82,1.15,1.15,0,0,0,.35.86,1.35,1.35,0,0,0,.84.33,1.11,1.11,0,0,0,.84-.37,1.13,1.13,0,0,0,.35-.8h0A1.21,1.21,0,0,0,150.37,266.87Z"/>
            <path class="cls-1"
                  d="M183.67,251.93l-2.28.55.35,2.57v6.2c0,1.07-.49,1.59-1.44,1.59h-3.41c-.94,0-1.41-.52-1.41-1.59v-9.2l-2.31.53.37,2.61v6.06c0,1.07-.47,1.59-1.41,1.59h-2.8a17.28,17.28,0,0,0-1-2.26,16.51,16.51,0,0,0-1.39-2.1c-1.32-1.72-2.66-2.57-4-2.57a2.49,2.49,0,0,0-1.19.29,2.55,2.55,0,0,0-1,.8,5,5,0,0,0-.7,1.28,6.74,6.74,0,0,0-.37,1.72l2-.24a4.18,4.18,0,0,1-.29-1.3c0-.72.29-1.09.9-1.09.82,0,1.75.72,2.82,2.18.43.6.8,1.15,1.11,1.66a15.21,15.21,0,0,1,.84,1.63H151.91c-1,0-1.42-.5-1.42-1.54v-5l-2.32.5.41,2.52v2c0,1-.49,1.54-1.45,1.54H124.89v-6.72H122a4.38,4.38,0,0,0-3.31,1.33,4.69,4.69,0,0,0-1.25,3.42,3.69,3.69,0,0,0,1.09,2.77,3.49,3.49,0,0,0,2.56,1H123a3.8,3.8,0,0,1-2.65,3.54l.41.76a5,5,0,0,0,4.11-4.3h22.81a3,3,0,0,0,1.87-.59,3,3,0,0,0,1.91.59h21.2a2.73,2.73,0,0,0,1.85-.61,2.9,2.9,0,0,0,1.93.61h4.36a2.69,2.69,0,0,0,2.9-2.91h0Zm-60.75,10.91h-1.64c-1.21,0-1.81-.78-1.81-2.32a4,4,0,0,1,.64-2.39,2.1,2.1,0,0,1,1.81-.88h1Z"/>
            <path class="cls-1"
                  d="M244.9,248.86a1.07,1.07,0,0,0-.85.37,1.34,1.34,0,0,0-.34.86,1.16,1.16,0,0,0,.36.85,1.11,1.11,0,0,0,.83.34,1.19,1.19,0,0,0,.87-.36,1.29,1.29,0,0,0,.34-.83,1.21,1.21,0,0,0-.36-.88A1.07,1.07,0,0,0,244.9,248.86Z"/>
        </g>
    </g>
</svg>