<svg xmlns="http://www.w3.org/2000/svg" width="24.924" height="25.759" viewBox="0 0 24.924 25.759">
  <path id="Icon" d="M24.608,23.793l-5.821-5.871a10.512,10.512,0,0,0,2.919-7.252A10.854,10.854,0,0,0,0,10.67,10.811,10.811,0,0,0,10.861,21.331,10.928,10.928,0,0,0,17,19.452l5.913,5.971a1.2,1.2,0,0,0,1.663,0,1.164,1.164,0,0,0,.033-1.63ZM2.378,10.67a8.416,8.416,0,0,1,8.483-8.316,8.416,8.416,0,0,1,8.483,8.316,8.416,8.416,0,0,1-8.483,8.316A8.416,8.416,0,0,1,2.378,10.67Z" transform="translate(0 0)" fill="#fff"/>
</svg>
