<svg xmlns="http://www.w3.org/2000/svg" width="24.443" height="19.011" viewBox="0 0 24.443 19.011">
  <path id="shopping-basket" d="M24.443,39.805v.679A1.018,1.018,0,0,1,23.424,41.5h-.339l-1.108,7.757a2.037,2.037,0,0,1-2.016,1.749H4.482a2.037,2.037,0,0,1-2.016-1.749L1.358,41.5H1.018A1.018,1.018,0,0,1,0,40.484v-.679a1.018,1.018,0,0,1,1.018-1.018H3.876l4.531-6.23a1.358,1.358,0,1,1,2.2,1.6L7.234,38.787h9.974l-3.369-4.633a1.358,1.358,0,0,1,2.2-1.6l4.531,6.23h2.858A1.018,1.018,0,0,1,24.443,39.805Zm-11.2,7.469V42.521a1.018,1.018,0,0,0-2.037,0v4.753a1.018,1.018,0,0,0,2.037,0Zm4.753,0V42.521a1.018,1.018,0,0,0-2.037,0v4.753a1.018,1.018,0,0,0,2.037,0Zm-9.505,0V42.521a1.018,1.018,0,0,0-2.037,0v4.753a1.018,1.018,0,0,0,2.037,0Z" transform="translate(0 -31.997)" fill="#d1d1d1"/>
</svg>
